<svg width="16" height="16" viewBox="0 0 16 16" fill="none" xmlns="http://www.w3.org/2000/svg">
<path d="M7.57048 11.1771L1.57048 5.84376C1.43802 5.72697 1.35731 5.5624 1.34606 5.38617C1.33482 5.20994 1.39395 5.03644 1.51048 4.90376C1.62727 4.7713 1.79184 4.69059 1.96807 4.67934C2.14431 4.66809 2.3178 4.72722 2.45048 4.84376L8.01048 9.78375L13.5705 4.84376C13.7043 4.73601 13.8745 4.68405 14.0456 4.69873C14.2168 4.71341 14.3757 4.79358 14.4891 4.92254C14.6026 5.0515 14.662 5.21928 14.6547 5.39091C14.6475 5.56254 14.5744 5.72476 14.4505 5.84376L8.45048 11.1771C8.32882 11.284 8.17242 11.3429 8.01048 11.3429C7.84854 11.3429 7.69214 11.284 7.57048 11.1771Z" fill="#6C5DD3"/>
</svg>
