<svg width="203" height="64" fill="none" xmlns="http://www.w3.org/2000/svg"><path d="M84 6.758h10.22c2.78 0 4.822.557 6.124 1.669 1.327 1.087 1.99 2.857 1.99 5.309 0 1.315-.217 2.402-.651 3.261-.433.86-1.173 1.618-2.22 2.276 1.149.454 1.991 1.15 2.527 2.085.561.936.842 2.162.842 3.678 0 2.529-.728 4.412-2.182 5.65-1.455 1.24-3.547 1.859-6.277 1.859H84V6.758zm9.99 10.618c1.99 0 2.985-1.024 2.985-3.071 0-2.048-1.007-3.072-3.023-3.072h-4.67v6.143h4.708zm.115 10.694c1.148 0 1.99-.227 2.526-.682.561-.48.842-1.277.842-2.39 0-1.112-.268-1.92-.804-2.426-.536-.531-1.39-.797-2.564-.797h-4.823v6.295h4.823zM114.486 33c-2.883 0-5.078-.86-6.583-2.579-1.48-1.744-2.22-4.209-2.22-7.394 0-3.16.74-5.6 2.22-7.32 1.505-1.718 3.7-2.578 6.583-2.578 2.884 0 5.065.86 6.545 2.579 1.506 1.719 2.259 4.159 2.259 7.319 0 3.185-.753 5.65-2.259 7.394-1.48 1.72-3.661 2.579-6.545 2.579zm0-4.323c1.225 0 2.131-.442 2.718-1.327.587-.885.88-2.326.88-4.323 0-1.998-.293-3.426-.88-4.285-.587-.86-1.493-1.29-2.718-1.29-1.225 0-2.13.43-2.717 1.29-.587.86-.881 2.287-.881 4.285 0 1.997.294 3.438.881 4.323.587.885 1.492 1.327 2.717 1.327zM134.857 33c-2.883 0-5.077-.86-6.583-2.579-1.48-1.744-2.22-4.209-2.22-7.394 0-3.16.74-5.6 2.22-7.32 1.506-1.718 3.7-2.578 6.583-2.578 2.884 0 5.066.86 6.546 2.579 1.505 1.719 2.258 4.159 2.258 7.319 0 3.185-.753 5.65-2.258 7.394-1.48 1.72-3.662 2.579-6.546 2.579zm0-4.323c1.225 0 2.131-.442 2.718-1.327.587-.885.88-2.326.88-4.323 0-1.998-.293-3.426-.88-4.285-.587-.86-1.493-1.29-2.718-1.29-1.224 0-2.13.43-2.717 1.29-.587.86-.88 2.287-.88 4.285 0 1.997.293 3.438.88 4.323.587.885 1.493 1.327 2.717 1.327zM147.421 6h5.128v15.093l1.953-.342 3.789-7.167h5.741l-4.976 8.988 5.244 9.973h-5.78l-3.865-7.395-2.106.342v7.053h-5.128V6zm27.17 27c-2.884 0-5.078-.86-6.584-2.579-1.48-1.744-2.22-4.209-2.22-7.394 0-3.16.74-5.6 2.22-7.32 1.506-1.718 3.7-2.578 6.584-2.578 2.883 0 5.065.86 6.545 2.579 1.505 1.719 2.258 4.159 2.258 7.319 0 3.185-.753 5.65-2.258 7.394-1.48 1.72-3.662 2.579-6.545 2.579zm0-4.323c1.225 0 2.131-.442 2.717-1.327.587-.885.881-2.326.881-4.323 0-1.998-.294-3.426-.881-4.285-.586-.86-1.492-1.29-2.717-1.29s-2.131.43-2.718 1.29c-.587.86-.88 2.287-.88 4.285 0 1.997.293 3.438.88 4.323.587.885 1.493 1.327 2.718 1.327zM194.656 33c-2.986 0-5.142-.746-6.469-2.237-1.327-1.492-1.99-3.906-1.99-7.243 0-3.49.689-6.093 2.067-7.812 1.403-1.72 3.572-2.579 6.507-2.579 2.705 0 4.746.72 6.124 2.162 1.403 1.415 2.105 3.552 2.105 6.408l-.383 3.527h-11.253c.051.885.204 1.568.46 2.048.28.455.714.784 1.301.986.612.177 1.454.265 2.526.265.842 0 1.85-.025 3.024-.076a56.384 56.384 0 002.564-.151l1.072-.114.077 3.754c-2.884.708-5.461 1.062-7.732 1.062zm3.292-11.642c0-1.517-.243-2.566-.728-3.147-.459-.607-1.288-.91-2.488-.91-1.224 0-2.092.316-2.602.948-.511.606-.779 1.643-.804 3.11h6.622zM84.314 44.72h2.545c1.147 0 1.99.194 2.527.584.537.389.806.977.806 1.764 0 .538-.165.986-.495 1.346-.326.355-.804.584-1.435.686v.038c.74.11 1.284.345 1.632.704.35.356.526.853.526 1.492 0 .855-.283 1.513-.85 1.974-.567.461-1.371.692-2.412.692h-2.844v-9.28zm.647 4.132h2.044c.872 0 1.505-.144 1.898-.432.398-.292.597-.747.597-1.364 0-.618-.224-1.067-.673-1.346-.444-.28-1.109-.419-1.993-.419h-1.873v3.561zm0 .571v4.006h2.184c1.718 0 2.577-.699 2.577-2.095 0-1.274-.905-1.91-2.717-1.91h-2.044zm13.051 1.117c0 1.126-.273 2.006-.819 2.641-.546.63-1.299.946-2.26.946-.605 0-1.138-.146-1.599-.438-.461-.292-.815-.711-1.06-1.257-.246-.546-.368-1.176-.368-1.892 0-1.125.273-2.001.819-2.627.546-.63 1.294-.946 2.247-.946.948 0 1.69.32 2.228.958.541.635.812 1.507.812 2.616zm-5.446 0c0 .948.207 1.689.622 2.222.419.53 1.01.794 1.771.794.762 0 1.35-.265 1.765-.794.419-.533.628-1.274.628-2.221 0-.953-.212-1.691-.635-2.216-.419-.525-1.009-.787-1.77-.787-.762 0-1.35.263-1.765.787-.41.52-.616 1.26-.616 2.215zm13.063 0c0 1.126-.273 2.006-.818 2.641-.546.63-1.3.946-2.26.946-.605 0-1.139-.146-1.6-.438-.461-.292-.814-.711-1.06-1.257-.245-.546-.368-1.176-.368-1.892 0-1.125.273-2.001.819-2.627.546-.63 1.295-.946 2.247-.946.948 0 1.69.32 2.228.958.542.635.812 1.507.812 2.616zm-5.446 0c0 .948.207 1.689.622 2.222.419.53 1.009.794 1.771.794s1.35-.265 1.765-.794c.419-.533.628-1.274.628-2.221 0-.953-.211-1.691-.635-2.216-.418-.525-1.009-.787-1.771-.787-.761 0-1.349.263-1.764.787-.411.52-.616 1.26-.616 2.215zm7.973.432l3.523-3.872h.761l-2.716 2.945L112.675 54h-.755l-2.622-3.485-1.13 1.029V54h-.628v-9.877h.628v4.951l-.044 1.898h.032zm14.339.635c0 .774-.286 1.388-.857 1.84-.567.454-1.322.68-2.266.68-1.134 0-2.004-.125-2.609-.375v-.647c.669.284 1.522.425 2.558.425.762 0 1.365-.173 1.809-.52.449-.352.673-.81.673-1.378 0-.35-.074-.64-.222-.87-.148-.232-.389-.444-.724-.634-.334-.19-.825-.396-1.472-.616-.948-.326-1.604-.677-1.968-1.053-.36-.381-.54-.887-.54-1.518 0-.694.271-1.259.813-1.694.546-.44 1.246-.66 2.101-.66.872 0 1.691.164 2.457.494l-.235.56c-.77-.322-1.507-.483-2.209-.483-.686 0-1.232.158-1.638.476-.406.317-.609.749-.609 1.295 0 .343.061.624.184.844.127.22.332.419.615.597.284.173.771.383 1.46.628.724.25 1.268.493 1.632.73.364.233.628.5.793.8.169.296.254.656.254 1.079zm3.625 1.961c.397 0 .744-.033 1.041-.101v.508a3.332 3.332 0 01-1.054.152c-.609 0-1.06-.163-1.352-.489-.288-.326-.432-.838-.432-1.536v-4.456h-1.022v-.368l1.022-.286.318-1.561h.323v1.67h2.025v.545h-2.025v4.367c0 .53.093.92.28 1.175.186.253.478.38.876.38zm8.239-3.027c0 1.125-.273 2.005-.819 2.64-.546.63-1.299.946-2.26.946-.605 0-1.138-.146-1.599-.438-.462-.292-.815-.711-1.06-1.257-.246-.546-.369-1.176-.369-1.892 0-1.125.273-2.001.819-2.627.546-.63 1.295-.946 2.247-.946.948 0 1.691.32 2.228.958.542.635.813 1.507.813 2.616zm-5.446 0c0 .947.207 1.688.622 2.221.419.53 1.009.794 1.771.794.761 0 1.35-.265 1.764-.794.419-.533.629-1.274.629-2.221 0-.953-.212-1.691-.635-2.216-.419-.525-1.009-.787-1.771-.787s-1.35.263-1.765.787c-.41.52-.615 1.26-.615 2.215zm10.073-3.574c.292 0 .605.03.94.089l-.121.603a3.68 3.68 0 00-.895-.108c-.588 0-1.07.25-1.447.749-.377.5-.565 1.13-.565 1.891V54h-.628v-6.9h.533l.063 1.244h.045c.283-.508.586-.863.907-1.066.322-.207.711-.311 1.168-.311zm5.136 7.16c-1.003 0-1.786-.309-2.349-.927-.559-.618-.838-1.483-.838-2.596 0-1.1.271-1.98.813-2.64.541-.665 1.271-.997 2.19-.997.812 0 1.453.283 1.923.85s.704 1.338.704 2.31v.509h-4.97c.009.948.229 1.671.66 2.17.436.5 1.058.75 1.867.75.393 0 .738-.028 1.034-.083.301-.055.679-.173 1.136-.355v.571c-.389.17-.749.283-1.079.343a5.79 5.79 0 01-1.091.095zm-.184-6.602c-.665 0-1.198.22-1.6.66-.402.436-.637 1.067-.705 1.892h4.266c0-.8-.174-1.424-.521-1.872-.347-.453-.827-.68-1.44-.68zM159.4 54h-.533l-2.037-7.16a25.16 25.16 0 01-.381-1.447c-.068.368-.165.79-.292 1.27-.123.477-.804 2.923-2.044 7.337h-.546l-2.552-9.28h.679l1.625 5.98.178.672c.055.203.104.396.146.578.047.177.087.35.121.52.038.165.072.332.101.502.102-.576.318-1.45.648-2.622l1.587-5.63h.717l1.86 6.462c.216.744.37 1.345.463 1.802.055-.304.125-.628.21-.97.088-.344.742-2.775 1.961-7.294h.654L159.4 54zm6.837.127c-1.003 0-1.786-.309-2.349-.927-.558-.618-.838-1.483-.838-2.596 0-1.1.271-1.98.813-2.64.541-.665 1.271-.997 2.19-.997.812 0 1.453.283 1.923.85s.705 1.338.705 2.31v.509h-4.971c.009.948.229 1.671.661 2.17.435.5 1.058.75 1.866.75.393 0 .738-.028 1.034-.083.301-.055.68-.173 1.137-.355v.571a4.93 4.93 0 01-1.079.343c-.33.063-.694.095-1.092.095zm-.184-6.602c-.665 0-1.198.22-1.6.66-.402.436-.637 1.067-.704 1.892h4.265c0-.8-.173-1.424-.52-1.872-.347-.453-.828-.68-1.441-.68zm7.446-.558c.964 0 1.69.305 2.177.914.491.605.736 1.492.736 2.66 0 1.146-.258 2.03-.774 2.653-.512.622-1.234.933-2.165.933-.491 0-.933-.102-1.327-.305a2.33 2.33 0 01-.933-.863h-.057L170.979 54h-.394v-9.877h.628v2.482c0 .372-.008.715-.025 1.028l-.019.54h.044c.263-.415.578-.72.946-.914.373-.195.819-.292 1.34-.292zm-.013.571c-.813 0-1.395.233-1.746.698-.351.466-.527 1.234-.527 2.305v.107c0 1.041.182 1.788.546 2.241.368.453.94.68 1.714.68.753 0 1.32-.263 1.701-.788.381-.529.572-1.28.572-2.253 0-1.993-.754-2.99-2.26-2.99zm9.121 4.666c0 .617-.234 1.093-.704 1.428-.47.33-1.136.495-2 .495-.922 0-1.654-.142-2.196-.425v-.68a4.834 4.834 0 002.196.521c.682 0 1.198-.112 1.549-.337.356-.228.533-.53.533-.907 0-.347-.141-.64-.425-.876-.279-.237-.741-.47-1.384-.698-.69-.25-1.174-.464-1.453-.642a2.087 2.087 0 01-.635-.609c-.14-.228-.21-.506-.21-.831 0-.517.216-.925.648-1.226.436-.3 1.043-.45 1.822-.45.744 0 1.451.14 2.12.419l-.235.571c-.677-.28-1.306-.419-1.885-.419-.563 0-1.01.093-1.34.28-.33.186-.495.444-.495.774 0 .36.127.647.381.863.258.216.76.457 1.504.724.623.224 1.075.427 1.359.61.283.177.495.38.635.608.143.229.215.498.215.807zM185.013 54h-.628v-6.9h.628V54zm-.717-8.817c0-.406.133-.61.4-.61.131 0 .233.054.304.16.077.105.115.255.115.45 0 .19-.038.34-.115.45a.342.342 0 01-.304.166c-.267 0-.4-.205-.4-.616zm4.856 8.385c.398 0 .745-.033 1.041-.101v.508a3.332 3.332 0 01-1.054.152c-.609 0-1.06-.163-1.352-.489-.288-.326-.432-.838-.432-1.536v-4.456h-1.022v-.368l1.022-.286.318-1.561h.324v1.67h2.024v.545h-2.024v4.367c0 .53.093.92.279 1.175.186.253.478.38.876.38zm5.319.559c-1.003 0-1.786-.309-2.348-.927-.559-.618-.838-1.483-.838-2.596 0-1.1.271-1.98.812-2.64.542-.665 1.272-.997 2.19-.997.813 0 1.454.283 1.923.85.47.567.705 1.338.705 2.31v.509h-4.97c.008.948.228 1.671.66 2.17.436.5 1.058.75 1.866.75.394 0 .739-.028 1.035-.083.3-.055.679-.173 1.136-.355v.571c-.389.17-.749.283-1.079.343-.33.063-.694.095-1.092.095zm-.184-6.602c-.664 0-1.197.22-1.599.66-.403.436-.637 1.067-.705 1.892h4.266c0-.8-.174-1.424-.521-1.872-.347-.453-.827-.68-1.441-.68z" fill="#11142D"/><rect width="64" height="64" rx="14" fill="#6C5DD3"/><path d="M51.32 45.441h-3.454a3.352 3.352 0 00.047-1.828l-1.265-4.891a1.68 1.68 0 00-2.044-1.206l-5.508 1.411-3.787-14.892 3.907-.994 2.341 9.209a1.68 1.68 0 103.256-.828l-3.977-15.64a3.338 3.338 0 00-1.539-2.059 3.337 3.337 0 00-2.545-.368l-3.572.909v-.905A3.363 3.363 0 0029.82 10h-4.03a3.363 3.363 0 00-3.36 3.36v3.359h-4.032a3.363 3.363 0 00-3.359 3.36V45.44h-3.36a1.68 1.68 0 100 3.36h1.68v2.52a1.68 1.68 0 103.36 0V48.8H46.28v2.52a1.68 1.68 0 103.36 0V48.8h1.68a1.68 1.68 0 100-3.36zM33.18 29.293l4.106 16.148H33.18V29.293zm10.635 11.893l.844 3.261-3.907.994-.828-3.258 3.891-.997zM37.58 16.61l.808 3.174-3.907.994-.807-3.175 3.906-.993zm-15.15 3.467v3.276h-4.032v-3.276h4.032zm-4.032 6.635h4.032V45.44h-4.032V26.713zM25.79 45.44V13.36h4.031v32.082h-4.03z" fill="#fff"/></svg>